<mxfile host="app.diagrams.net" modified="2022-10-11T12:11:49.837Z" agent="5.0 (Macintosh; Intel Mac OS X 10_15_7) AppleWebKit/537.36 (KHTML, like Gecko) Chrome/105.0.0.0 Safari/537.36" etag="NNrwHw0U4IGNUtgHXx7I" version="20.4.0" type="github">
  <diagram name="Page-1" id="8ce9d11a-91a2-4d17-14d8-a56ed91bf033">
    <mxGraphModel dx="946" dy="614" grid="1" gridSize="10" guides="1" tooltips="1" connect="1" arrows="1" fold="1" page="1" pageScale="1" pageWidth="1100" pageHeight="850" background="none" math="0" shadow="0">
      <root>
        <mxCell id="0" />
        <mxCell id="1" parent="0" />
        <mxCell id="SOK41WKO3TweLENbKUh7-1" value="Input Number" style="rounded=0;whiteSpace=wrap;html=1;" parent="1" vertex="1">
          <mxGeometry x="500" y="40" width="120" height="60" as="geometry" />
        </mxCell>
        <mxCell id="SOK41WKO3TweLENbKUh7-2" value="Natural?" style="shape=hexagon;perimeter=hexagonPerimeter2;whiteSpace=wrap;html=1;fixedSize=1;" parent="1" vertex="1">
          <mxGeometry x="515" y="170" width="90" height="60" as="geometry" />
        </mxCell>
        <mxCell id="SOK41WKO3TweLENbKUh7-4" value="" style="endArrow=classic;html=1;rounded=0;exitX=0.5;exitY=1;exitDx=0;exitDy=0;entryX=0.5;entryY=0;entryDx=0;entryDy=0;" parent="1" source="SOK41WKO3TweLENbKUh7-1" target="SOK41WKO3TweLENbKUh7-2" edge="1">
          <mxGeometry width="50" height="50" relative="1" as="geometry">
            <mxPoint x="530" y="380" as="sourcePoint" />
            <mxPoint x="580" y="330" as="targetPoint" />
          </mxGeometry>
        </mxCell>
        <mxCell id="SOK41WKO3TweLENbKUh7-6" value="" style="endArrow=classic;html=1;rounded=0;exitX=1;exitY=0.5;exitDx=0;exitDy=0;fillColor=#f8cecc;strokeColor=#b85450;strokeWidth=2;entryX=0.47;entryY=0.139;entryDx=0;entryDy=0;entryPerimeter=0;" parent="1" source="SOK41WKO3TweLENbKUh7-2" target="SOK41WKO3TweLENbKUh7-10" edge="1">
          <mxGeometry width="50" height="50" relative="1" as="geometry">
            <mxPoint x="530" y="380" as="sourcePoint" />
            <mxPoint x="639.9523246862589" y="241.94278962351075" as="targetPoint" />
          </mxGeometry>
        </mxCell>
        <mxCell id="SOK41WKO3TweLENbKUh7-7" value="" style="endArrow=classic;html=1;rounded=0;exitX=0;exitY=0.5;exitDx=0;exitDy=0;fillColor=#d5e8d4;strokeColor=#82b366;strokeWidth=2;entryX=0.5;entryY=0;entryDx=0;entryDy=0;" parent="1" source="SOK41WKO3TweLENbKUh7-2" target="SOK41WKO3TweLENbKUh7-11" edge="1">
          <mxGeometry width="50" height="50" relative="1" as="geometry">
            <mxPoint x="605" y="210.0000000000001" as="sourcePoint" />
            <mxPoint x="440" y="240" as="targetPoint" />
          </mxGeometry>
        </mxCell>
        <mxCell id="SOK41WKO3TweLENbKUh7-10" value="Not Prime" style="shape=tape;whiteSpace=wrap;html=1;size=0.19999999999999774;fillColor=#f8cecc;strokeColor=#b85450;" parent="1" vertex="1">
          <mxGeometry x="650" y="235" width="70" height="50" as="geometry" />
        </mxCell>
        <mxCell id="SOK41WKO3TweLENbKUh7-11" value="&amp;gt; 1" style="shape=hexagon;perimeter=hexagonPerimeter2;whiteSpace=wrap;html=1;fixedSize=1;" parent="1" vertex="1">
          <mxGeometry x="410" y="240" width="60" height="40" as="geometry" />
        </mxCell>
        <mxCell id="SOK41WKO3TweLENbKUh7-12" value="" style="endArrow=classic;html=1;rounded=0;exitX=0;exitY=0.5;exitDx=0;exitDy=0;fillColor=#d5e8d4;strokeColor=#82b366;strokeWidth=2;entryX=0.5;entryY=0;entryDx=0;entryDy=0;startArrow=none;" parent="1" source="SOK41WKO3TweLENbKUh7-11" target="SOK41WKO3TweLENbKUh7-14" edge="1">
          <mxGeometry width="50" height="50" relative="1" as="geometry">
            <mxPoint x="410" y="310.0000000000001" as="sourcePoint" />
            <mxPoint x="350" y="300" as="targetPoint" />
          </mxGeometry>
        </mxCell>
        <mxCell id="SOK41WKO3TweLENbKUh7-13" value="" style="endArrow=classic;html=1;rounded=0;exitX=1;exitY=0.5;exitDx=0;exitDy=0;fillColor=#f8cecc;strokeColor=#b85450;strokeWidth=2;entryX=0;entryY=0.5;entryDx=0;entryDy=0;entryPerimeter=0;" parent="1" source="SOK41WKO3TweLENbKUh7-11" target="SOK41WKO3TweLENbKUh7-10" edge="1">
          <mxGeometry width="50" height="50" relative="1" as="geometry">
            <mxPoint x="480" y="280.0000000000001" as="sourcePoint" />
            <mxPoint x="547.8999999999999" y="316.95000000000005" as="targetPoint" />
          </mxGeometry>
        </mxCell>
        <mxCell id="SOK41WKO3TweLENbKUh7-14" value="Product of 2 &lt;br&gt;smaller naturals&amp;nbsp;" style="shape=hexagon;perimeter=hexagonPerimeter2;whiteSpace=wrap;html=1;fixedSize=1;" parent="1" vertex="1">
          <mxGeometry x="280" y="310" width="120" height="50" as="geometry" />
        </mxCell>
        <mxCell id="SOK41WKO3TweLENbKUh7-15" value="" style="endArrow=classic;html=1;rounded=0;exitX=1;exitY=0.5;exitDx=0;exitDy=0;fillColor=#d5e8d4;strokeColor=#82b366;strokeWidth=2;entryX=0.02;entryY=0.94;entryDx=0;entryDy=0;entryPerimeter=0;" parent="1" source="SOK41WKO3TweLENbKUh7-14" target="SOK41WKO3TweLENbKUh7-10" edge="1">
          <mxGeometry width="50" height="50" relative="1" as="geometry">
            <mxPoint x="420" y="270" as="sourcePoint" />
            <mxPoint x="350" y="320" as="targetPoint" />
          </mxGeometry>
        </mxCell>
        <mxCell id="SOK41WKO3TweLENbKUh7-16" value="" style="endArrow=classic;html=1;rounded=0;exitX=0;exitY=0.5;exitDx=0;exitDy=0;fillColor=#f8cecc;strokeColor=#b85450;strokeWidth=2;entryX=0.75;entryY=0;entryDx=0;entryDy=0;entryPerimeter=0;" parent="1" source="SOK41WKO3TweLENbKUh7-14" target="SOK41WKO3TweLENbKUh7-17" edge="1">
          <mxGeometry width="50" height="50" relative="1" as="geometry">
            <mxPoint x="480" y="270" as="sourcePoint" />
            <mxPoint x="210" y="390" as="targetPoint" />
          </mxGeometry>
        </mxCell>
        <mxCell id="SOK41WKO3TweLENbKUh7-17" value="Prime" style="shape=tape;whiteSpace=wrap;html=1;fillColor=#d5e8d4;strokeColor=#82b366;" parent="1" vertex="1">
          <mxGeometry x="170" y="370" width="60" height="60" as="geometry" />
        </mxCell>
        <mxCell id="f4vl_FgKclONYXckkl7B-1" value="Yes" style="text;html=1;strokeColor=none;fillColor=none;align=center;verticalAlign=middle;whiteSpace=wrap;rounded=0;rotation=-30;" vertex="1" parent="1">
          <mxGeometry x="465" y="190" width="50" height="20" as="geometry" />
        </mxCell>
        <mxCell id="f4vl_FgKclONYXckkl7B-3" value="Yes" style="text;html=1;strokeColor=none;fillColor=none;align=center;verticalAlign=middle;whiteSpace=wrap;rounded=0;rotation=-15;" vertex="1" parent="1">
          <mxGeometry x="400" y="310" width="50" height="20" as="geometry" />
        </mxCell>
        <mxCell id="f4vl_FgKclONYXckkl7B-2" value="Yes" style="text;html=1;strokeColor=none;fillColor=none;align=center;verticalAlign=middle;whiteSpace=wrap;rounded=0;rotation=-30;" vertex="1" parent="1">
          <mxGeometry x="360" y="260" width="50" height="20" as="geometry" />
        </mxCell>
        <mxCell id="f4vl_FgKclONYXckkl7B-5" value="No&lt;br&gt;" style="text;html=1;strokeColor=none;fillColor=none;align=center;verticalAlign=middle;whiteSpace=wrap;rounded=0;rotation=-25;" vertex="1" parent="1">
          <mxGeometry x="230" y="330" width="50" height="20" as="geometry" />
        </mxCell>
        <mxCell id="f4vl_FgKclONYXckkl7B-7" value="No&lt;br&gt;" style="text;html=1;strokeColor=none;fillColor=none;align=center;verticalAlign=middle;whiteSpace=wrap;rounded=0;rotation=0;" vertex="1" parent="1">
          <mxGeometry x="470" y="235" width="50" height="20" as="geometry" />
        </mxCell>
        <mxCell id="f4vl_FgKclONYXckkl7B-8" value="No&lt;br&gt;" style="text;html=1;strokeColor=none;fillColor=none;align=center;verticalAlign=middle;whiteSpace=wrap;rounded=0;rotation=30;" vertex="1" parent="1">
          <mxGeometry x="605" y="190" width="50" height="20" as="geometry" />
        </mxCell>
      </root>
    </mxGraphModel>
  </diagram>
</mxfile>
